<svg width="62" height="62" viewBox="0 0 62 62" fill="none" xmlns="http://www.w3.org/2000/svg">
<path d="M53.6 21.6H47.2V25.6H51.2V28.8C51.2 41.6 47.28 44.24 44 48.72C52.64 45.92 56 42.4 56 24.8C56 23.76 56 21.6 53.6 21.6Z" fill="#FAC546"/>
<path d="M44 49.52C43.76 49.52 43.52 49.44 43.36 49.2C43.12 48.88 43.12 48.56 43.36 48.24C43.84 47.52 44.4 46.88 44.88 46.24C47.76 42.72 50.4 39.36 50.4 28.8V26.4H47.2C46.72 26.4 46.4 26.08 46.4 25.6V21.6C46.4 21.12 46.72 20.8 47.2 20.8H53.6C56.8 20.8 56.8 23.84 56.8 24.8C56.8 42.24 53.52 46.4 44.24 49.44C44.16 49.52 44.08 49.52 44 49.52ZM48 24.8H51.2C51.68 24.8 52 25.12 52 25.6V28.8C52 39.68 49.2 43.52 46.32 47.04C52.48 44.48 55.2 40.32 55.2 24.8C55.2 23.2 54.96 22.4 53.6 22.4H48V24.8Z" fill="#231C1C"/>
<path d="M47.2 51.2C47.2 52.96 47.2 56 42.4 56H20C15.2 56 15.2 52.96 15.2 51.2V16H47.2V51.2Z" fill="#FAC546"/>
<path d="M42.4 56.8H20C14.4 56.8 14.4 52.88 14.4 51.2V16C14.4 15.52 14.72 15.2 15.2 15.2H47.2C47.68 15.2 48 15.52 48 16V51.2C48 52.88 48 56.8 42.4 56.8ZM16 16.8V51.2C16 52.96 16 55.2 20 55.2H42.4C46.4 55.2 46.4 52.96 46.4 51.2V16.8H16Z" fill="#231C1C"/>
<path d="M22.4 52C21.92 52 21.6 51.68 21.6 51.2V28C21.6 27.52 21.92 27.2 22.4 27.2C22.88 27.2 23.2 27.52 23.2 28V51.2C23.2 51.68 22.88 52 22.4 52ZM31.2 52C30.72 52 30.4 51.68 30.4 51.2V28C30.4 27.52 30.72 27.2 31.2 27.2C31.68 27.2 32 27.52 32 28V51.2C32 51.68 31.68 52 31.2 52Z" fill="#231C1C"/>
<path d="M40 52C39.52 52 39.2 51.68 39.2 51.2V28C39.2 27.52 39.52 27.2 40 27.2C40.48 27.2 40.8 27.52 40.8 28V51.2C40.8 51.68 40.48 52 40 52Z" fill="#231C1C"/>
<path d="M45.04 10.4C44.8 10.4 44.56 10.4 44.32 10.48C43.44 8.95999 41.92 7.99999 40.16 7.99999C38 7.99999 35.04 6.79999 34.4 8.79999C33.76 8.15999 34 10.4 33.04 10.4H32.96C32.56 6.79999 29.76 6.39999 26.24 6.39999C23.2 6.39999 20.64 6.15999 19.76 9.03999C18.96 8.39999 19.44 9.59999 18.32 9.59999C15.6 9.59999 13.52 10.32 13.52 13.2C13.52 16.08 14.08 16 16.8 16H17.52V21.2C17.52 22.32 18.4 23.2 19.52 23.2C20.64 23.2 21.52 22.32 21.52 21.2V16H24.72V27.2C24.72 28.08 25.76 28.8 27.12 28.8C28.48 28.8 29.52 28.08 29.52 27.2V16H35.12V20C35.12 21.36 36.16 22.4 37.52 22.4C38.88 22.4 39.92 21.36 39.92 20V16H44.96C47.04 16 47.92 16.64 47.92 14.4C47.92 12.16 47.12 10.4 45.04 10.4Z" fill="white"/>
<path d="M27.2 29.6C25.44 29.6 24 28.56 24 27.2V16.8H22.4V21.2C22.4 22.72 21.12 24 19.6 24C18.08 24 16.8 22.72 16.8 21.2V16.8H16.72C15.36 16.8 14.4 16.8 13.76 16.32C13.04 15.76 12.88 14.72 12.88 13.2C12.88 10.32 14.8 8.79999 18.48 8.79999H18.56V8.71999C18.64 8.55999 18.88 8.15999 19.28 8.07999H19.36C20.48 5.51999 23.04 5.59999 25.52 5.59999H26.24C28.48 5.59999 31.92 5.59999 33.28 8.47999C33.44 8.23999 33.6 7.99999 33.92 7.91999C34.88 6.55999 36.8 6.79999 38.4 7.03999C39.04 7.11999 39.6 7.19999 40.16 7.19999C42 7.19999 43.6 8.07999 44.72 9.59999C47.2 9.35999 48.8 11.28 48.8 14.4C48.8 15.12 48.72 15.92 48.16 16.4C47.6 16.88 46.88 16.88 46.08 16.8C45.76 16.8 45.44 16.72 45.04 16.72H40.8V19.92C40.8 21.68 39.36 23.12 37.6 23.12C35.84 23.12 34.4 21.68 34.4 19.92V16.72H30.4V27.12C30.4 28.56 28.96 29.6 27.2 29.6ZM21.6 15.2H24.8C25.28 15.2 25.6 15.52 25.6 16V27.2C25.6 27.52 26.24 28 27.2 28C28.16 28 28.8 27.52 28.8 27.2V16C28.8 15.52 29.12 15.2 29.6 15.2H35.2C35.68 15.2 36 15.52 36 16V20C36 20.88 36.72 21.6 37.6 21.6C38.48 21.6 39.2 20.88 39.2 20V16C39.2 15.52 39.52 15.2 40 15.2H45.04C45.44 15.2 45.84 15.2 46.16 15.28C46.48 15.28 46.96 15.36 47.04 15.28C47.04 15.28 47.12 15.12 47.12 14.4C47.12 13.2 46.88 11.2 44.96 11.2C44.8 11.2 44.56 11.2 44.4 11.28C44.08 11.36 43.68 11.2 43.52 10.88C42.88 9.59999 41.6 8.79999 40.16 8.79999C39.52 8.79999 38.8 8.71999 38.16 8.63999C36.24 8.39999 35.36 8.39999 35.12 9.11999C35.04 9.35999 34.8 9.59999 34.56 9.67999C34.4 10.24 34.08 11.28 33.04 11.28H32.96C32.56 11.28 32.24 10.96 32.16 10.56C31.92 7.67999 30 7.19999 26.24 7.19999H25.52C22.56 7.19999 21.12 7.27999 20.56 9.27999C20.48 9.51999 20.32 9.75999 20 9.83999C19.84 9.83999 19.76 9.91999 19.6 9.83999C19.44 10.16 19.04 10.4 18.4 10.4C14.88 10.4 14.4 11.76 14.4 13.2C14.4 13.6 14.4 14.8 14.72 15.04C14.96 15.2 15.76 15.2 16.72 15.2H17.6C18.08 15.2 18.4 15.52 18.4 16V21.2C18.4 21.84 18.96 22.4 19.6 22.4C20.24 22.4 20.8 21.84 20.8 21.2V16C20.8 15.52 21.12 15.2 21.6 15.2Z" fill="#231C1C"/>
</svg>
