<svg width="62" height="62" viewBox="0 0 62 62" fill="none" xmlns="http://www.w3.org/2000/svg">
<path d="M57.3035 50.2071L32.1457 1.98399C31.7001 1.13149 30.2999 1.13149 29.8543 1.98399L21.4417 18.1092C21.6135 18.0975 21.784 18.0833 21.9583 18.0833C24.0138 18.0833 25.985 18.8998 27.4384 20.3533C28.8918 21.8067 29.7083 23.7779 29.7083 25.8333C29.7083 27.8888 28.8918 29.86 27.4384 31.3134C25.985 32.7668 24.0138 33.5833 21.9583 33.5833C20.623 33.5831 19.3105 33.2373 18.1485 32.5795C16.9864 31.9218 16.0144 30.9745 15.3269 29.8297L4.69649 50.2058C4.61763 50.3573 4.56953 50.5229 4.55497 50.6931C4.54041 50.8633 4.55969 51.0347 4.61168 51.1974C4.66367 51.3601 4.74735 51.5108 4.8579 51.6411C4.96845 51.7713 5.10368 51.8783 5.25579 51.956C13.2951 56.0493 21.957 58.125 31 58.125C40.0429 58.125 48.7049 56.0493 56.7442 51.956C56.8961 51.8783 57.0312 51.7713 57.1417 51.6412C57.2521 51.5111 57.3357 51.3604 57.3877 51.1979C57.4397 51.0353 57.459 50.8641 57.4445 50.6941C57.4301 50.524 57.3822 50.3585 57.3035 50.2071Z" fill="#EA9860"/>
<path d="M21.9583 33.5833C24.0137 33.5833 25.985 32.7668 27.4384 31.3134C28.8918 29.86 29.7083 27.8888 29.7083 25.8333C29.7083 23.7779 28.8918 21.8067 27.4384 20.3533C25.985 18.8998 24.0137 18.0833 21.9583 18.0833C21.7839 18.0833 21.6134 18.0975 21.4417 18.1092L15.3269 29.8297C16.0144 30.9745 16.9864 31.9218 18.1485 32.5795C19.3105 33.2373 20.623 33.5831 21.9583 33.5833Z" fill="#C94F49"/>
<path d="M29.7083 38.75C29.7083 40.1203 30.2527 41.4345 31.2216 42.4034C32.1906 43.3723 33.5047 43.9167 34.875 43.9167C36.2453 43.9167 37.5595 43.3723 38.5284 42.4034C39.4973 41.4345 40.0417 40.1203 40.0417 38.75C40.0417 38.0715 39.908 37.3997 39.6484 36.7728C39.3887 36.146 39.0082 35.5764 38.5284 35.0966C38.0486 34.6169 37.4791 34.2363 36.8522 33.9766C36.2254 33.717 35.5535 33.5833 34.875 33.5833C34.1965 33.5833 33.5247 33.717 32.8978 33.9766C32.271 34.2363 31.7014 34.6169 31.2216 35.0966C30.7419 35.5764 30.3613 36.146 30.1016 36.7728C29.842 37.3997 29.7083 38.0715 29.7083 38.75Z" fill="#C94F49"/>
<path d="M31 60.7083C21.545 60.7083 12.4904 58.5383 4.08295 54.2577C3.16691 53.7913 2.47367 52.9801 2.15574 52.0026C1.99832 51.5186 1.93777 51.0083 1.97756 50.5008C2.01735 49.9934 2.15669 49.4988 2.38763 49.0452C2.61858 48.5917 2.9366 48.188 3.32354 47.8573C3.71048 47.5267 4.15876 47.2755 4.64278 47.118C5.62032 46.8001 6.68412 46.8835 7.60015 47.3499C14.9058 51.0725 22.7798 52.9583 31 52.9583C39.2202 52.9583 47.0929 51.0725 54.3998 47.3499C54.8534 47.119 55.348 46.9796 55.8554 46.9398C56.3629 46.9001 56.8732 46.9606 57.3572 47.118C57.8412 47.2755 58.2895 47.5267 58.6764 47.8573C59.0634 48.188 59.3814 48.5917 59.6123 49.0452C59.8433 49.4988 59.9826 49.9934 60.0224 50.5008C60.0622 51.0083 60.0017 51.5186 59.8442 52.0026C59.6868 52.4866 59.4356 52.9349 59.1049 53.3218C58.7743 53.7088 58.3706 54.0268 57.917 54.2577C49.5096 58.537 40.4537 60.7083 31 60.7083Z" fill="#DDBE99"/>
</svg>
