<svg width="62" height="62" viewBox="0 0 62 62" fill="none" xmlns="http://www.w3.org/2000/svg">
<path d="M10.24 28.5257H50.9257C54.3086 28.5257 56.96 31.2686 56.96 34.56V45.8057H6.94858V31.7257C6.94858 29.9886 8.41144 28.5257 10.24 28.5257Z" fill="#FAD311"/>
<path d="M56.96 46.4457H6.94856C6.58285 46.4457 6.30856 46.1714 6.30856 45.8057V31.7257C6.30856 29.5314 8.04571 27.7943 10.24 27.7943H50.9257C54.6743 27.7943 57.6914 30.8114 57.6914 34.56V45.8057C57.6 46.1714 57.3257 46.4457 56.96 46.4457ZM7.58856 45.1657H56.32V34.56C56.32 31.5429 53.8514 29.1657 50.9257 29.1657H10.24C8.77713 29.1657 7.58856 30.3543 7.58856 31.8171V45.1657Z" fill="#141515"/>
<path d="M3.83999 43.8857H60.2514C61.0743 43.8857 61.7143 44.5257 61.7143 45.3486V47.0857C61.7143 47.9086 61.0743 48.5486 60.2514 48.5486H3.83999C3.01714 48.5486 2.37714 47.9086 2.37714 47.0857V45.3486C2.37714 44.5257 3.01714 43.8857 3.83999 43.8857Z" fill="#6E7377"/>
<path d="M60.16 49.1886H3.84001C2.65144 49.1886 1.73715 48.2743 1.73715 47.0857V45.3486C1.73715 44.16 2.65144 43.2457 3.84001 43.2457H60.2514C61.44 43.2457 62.3543 44.16 62.3543 45.3486V47.0857C62.2629 48.2743 61.3486 49.1886 60.16 49.1886ZM3.84001 44.5257C3.38287 44.5257 3.01715 44.8914 3.01715 45.3486V47.0857C3.01715 47.5429 3.38287 47.9086 3.84001 47.9086H60.2514C60.7086 47.9086 61.0743 47.5429 61.0743 47.0857V45.3486C61.0743 44.8914 60.7086 44.5257 60.2514 44.5257H3.84001Z" fill="#141515"/>
<path d="M3.5657 40.1371H7.03999V43.9771H3.5657V40.1371Z" fill="#6E7377"/>
<path d="M7.04001 44.5257H3.56572C3.20001 44.5257 2.92572 44.2514 2.92572 43.8857V40.0457C2.92572 39.68 3.20001 39.4057 3.56572 39.4057H7.04001C7.40572 39.4057 7.68001 39.68 7.68001 40.0457V43.8857C7.68001 44.2514 7.40572 44.5257 7.04001 44.5257ZM4.20572 43.2457H6.40001V40.7771H4.20572V43.2457Z" fill="#141515"/>
<path d="M17.8286 12.3429H39.4057C44.3429 12.3429 47.4514 16.5486 48.4571 21.3943L49.92 28.4343H16.0914V14.08C16.0914 13.1657 16.9143 12.3429 17.8286 12.3429Z" fill="#FAD311"/>
<path d="M50.0114 29.1657H16.0914C15.7257 29.1657 15.4514 28.8914 15.4514 28.5257V14.08C15.4514 12.8 16.5486 11.7029 17.8286 11.7029H39.4057C45.0743 11.7029 48.0914 16.64 49.0971 21.3029L50.56 28.2514C50.56 28.3429 50.6514 28.4343 50.6514 28.5257C50.6514 28.8 50.3771 29.1657 50.0114 29.1657ZM16.7314 27.7943H49.1886L47.9086 21.4857C46.9943 17.3714 44.3428 12.9829 39.4971 12.9829H17.8286C17.1886 12.9829 16.7314 13.44 16.7314 14.08V27.7943Z" fill="#141515"/>
<path d="M44.5257 28.5257H16.0914V16.4571H35.4743C40.1371 16.4571 42.9714 20.6629 43.8857 25.5086L44.5257 28.5257Z" fill="#90CED9"/>
<path d="M45.2571 29.1657H15.4514V15.8171H35.4743C39.8628 15.8171 43.3371 19.4743 44.5257 25.4171L45.2571 29.1657ZM16.7314 27.7943H43.7028L43.2457 25.6C42.4228 21.4857 39.9543 17.0971 35.4743 17.0971H16.7314V27.7943Z" fill="#141515"/>
<path d="M24.5943 16.4571H27.52V28.5257H24.5943V16.4571Z" fill="#EDA127"/>
<path d="M27.4286 29.1657H24.5029C24.1371 29.1657 23.8629 28.8914 23.8629 28.5257V16.4571C23.8629 16.0914 24.1371 15.8171 24.5029 15.8171H27.4286C27.7943 15.8171 28.0686 16.0914 28.0686 16.4571V28.5257C28.16 28.8 27.7943 29.1657 27.4286 29.1657ZM25.2343 27.7943H26.88V17.0971H25.2343V27.7943Z" fill="#141515"/>
<path d="M16.4571 55.68C20.48 55.68 23.8629 52.3886 23.8629 48.2743C23.8629 44.2514 20.5714 40.8686 16.4571 40.8686C12.4343 40.8686 9.05142 44.16 9.05142 48.2743C9.14285 52.3886 12.4343 55.68 16.4571 55.68Z" fill="#A1A69C"/>
<path d="M16.4572 56.32C12.0686 56.32 8.41144 52.7543 8.41144 48.2743C8.41144 43.8857 11.9772 40.2286 16.4572 40.2286C20.8457 40.2286 24.5029 43.7943 24.5029 48.2743C24.5029 52.7543 20.9372 56.32 16.4572 56.32ZM16.4572 41.6C12.7086 41.6 9.78287 44.6171 9.78287 48.2743C9.78287 52.0229 12.8 54.9486 16.4572 54.9486C20.2057 54.9486 23.1314 51.9314 23.1314 48.2743C23.2229 44.6171 20.2057 41.6 16.4572 41.6Z" fill="#141515"/>
<path d="M12.9828 48.3657C12.9828 49.2872 13.3489 50.1709 14.0004 50.8224C14.652 51.474 15.5357 51.84 16.4571 51.84C17.3786 51.84 18.2623 51.474 18.9138 50.8224C19.5654 50.1709 19.9314 49.2872 19.9314 48.3657C19.9314 47.4443 19.5654 46.5606 18.9138 45.909C18.2623 45.2575 17.3786 44.8914 16.4571 44.8914C15.5357 44.8914 14.652 45.2575 14.0004 45.909C13.3489 46.5606 12.9828 47.4443 12.9828 48.3657Z" fill="#DAD9B4"/>
<path d="M16.4572 52.48C14.1714 52.48 12.3429 50.6514 12.3429 48.3657C12.3429 46.08 14.1714 44.2514 16.4572 44.2514C18.7429 44.2514 20.5714 46.08 20.5714 48.3657C20.5714 50.6514 18.7429 52.48 16.4572 52.48ZM16.4572 45.5314C14.9029 45.5314 13.6229 46.8114 13.6229 48.3657C13.6229 49.92 14.9029 51.2 16.4572 51.2C18.0114 51.2 19.2914 49.92 19.2914 48.3657C19.2914 46.8114 18.0114 45.5314 16.4572 45.5314Z" fill="#141515"/>
<path d="M47.1771 55.68C51.2 55.68 54.5829 52.3886 54.5829 48.2743C54.5829 44.2514 51.2914 40.8686 47.1771 40.8686C43.0629 40.8686 39.7714 44.16 39.7714 48.2743C39.7714 52.3886 43.0629 55.68 47.1771 55.68Z" fill="#A1A69C"/>
<path d="M47.1772 56.32C42.7886 56.32 39.1314 52.7543 39.1314 48.2743C39.1314 43.8857 42.6972 40.2286 47.1772 40.2286C51.6572 40.2286 55.2229 43.7943 55.2229 48.2743C55.1314 52.7543 51.5657 56.32 47.1772 56.32ZM47.1772 41.6C43.52 41.6 40.5029 44.6171 40.5029 48.2743C40.5029 52.0229 43.52 54.9486 47.1772 54.9486C50.9257 54.9486 53.8514 51.9314 53.8514 48.2743C53.8514 44.6171 50.8343 41.6 47.1772 41.6Z" fill="#141515"/>
<path d="M43.7029 48.3657C43.7029 49.2872 44.0689 50.1709 44.7204 50.8224C45.372 51.474 46.2557 51.84 47.1771 51.84C48.0986 51.84 48.9823 51.474 49.6338 50.8224C50.2854 50.1709 50.6514 49.2872 50.6514 48.3657C50.6514 47.4443 50.2854 46.5606 49.6338 45.909C48.9823 45.2575 48.0986 44.8914 47.1771 44.8914C46.2557 44.8914 45.372 45.2575 44.7204 45.909C44.0689 46.5606 43.7029 47.4443 43.7029 48.3657Z" fill="#DAD9B4"/>
<path d="M47.1772 52.48C44.8914 52.48 43.0629 50.6514 43.0629 48.3657C43.0629 46.08 44.8914 44.2514 47.1772 44.2514C49.4629 44.2514 51.2914 46.08 51.2914 48.3657C51.2914 50.6514 49.4629 52.48 47.1772 52.48ZM47.1772 45.5314C45.6229 45.5314 44.3429 46.8114 44.3429 48.3657C44.3429 49.92 45.6229 51.2 47.1772 51.2C48.7314 51.2 50.0114 49.92 50.0114 48.3657C50.0114 46.8114 48.7314 45.5314 47.1772 45.5314Z" fill="#141515"/>
<path d="M5.48572 35.84H9.50858C10.1486 35.84 10.6971 36.3886 10.6971 37.0286V37.6686C10.6971 38.3086 10.1486 38.8571 9.50858 38.8571H5.48572C4.84572 38.8571 4.29715 38.3086 4.29715 37.6686V37.0286C4.29715 36.3886 4.84572 35.84 5.48572 35.84Z" fill="#FFE638"/>
<path d="M9.50856 39.4971H5.48571C4.47999 39.4971 3.65714 38.6743 3.65714 37.6686V37.0286C3.65714 36.0229 4.47999 35.2 5.48571 35.2H9.50856C10.5143 35.2 11.3371 36.0229 11.3371 37.0286V37.6686C11.3371 38.6743 10.5143 39.4971 9.50856 39.4971ZM5.48571 36.48C5.21142 36.48 4.93713 36.7543 4.93713 37.0286V37.6686C4.93713 37.9429 5.21142 38.2171 5.48571 38.2171H9.50856C9.78285 38.2171 10.0571 37.9429 10.0571 37.6686V37.0286C10.0571 36.7543 9.78285 36.48 9.50856 36.48H5.48571Z" fill="#141515"/>
<path d="M25.3257 42.24C24.96 42.24 24.6857 41.9657 24.6857 41.6V30.5371C24.6857 30.1714 24.96 29.8971 25.3257 29.8971C25.6914 29.8971 25.9657 30.1714 25.9657 30.5371V41.6C25.9657 41.9657 25.6914 42.24 25.3257 42.24Z" fill="#141515"/>
<path d="M38.4914 42.24C38.1257 42.24 37.8514 41.9657 37.8514 41.6V30.5371C37.8514 30.1714 38.1257 29.8971 38.4914 29.8971C38.8572 29.8971 39.1314 30.1714 39.1314 30.5371V41.6C39.1314 41.9657 38.8572 42.24 38.4914 42.24Z" fill="#141515"/>
<path d="M54.8572 39.68H58.88C59.52 39.68 60.0686 40.2286 60.0686 40.8686V41.5086C60.0686 42.1486 59.52 42.6971 58.88 42.6971H54.8572C54.2172 42.6971 53.6686 42.1486 53.6686 41.5086V40.8686C53.6686 40.1371 54.2172 39.68 54.8572 39.68Z" fill="#EC748B"/>
<path d="M58.88 43.3371H54.8571C53.8514 43.3371 53.0286 42.5143 53.0286 41.5086V40.8686C53.0286 39.8629 53.8514 39.04 54.8571 39.04H58.88C59.8857 39.04 60.7086 39.8629 60.7086 40.8686V41.5086C60.7086 42.5143 59.8857 43.3371 58.88 43.3371ZM54.8571 40.32C54.5829 40.32 54.3086 40.5943 54.3086 40.8686V41.5086C54.3086 41.7829 54.5828 42.0571 54.8571 42.0571H58.88C59.1543 42.0571 59.4286 41.7829 59.4286 41.5086V40.8686C59.4286 40.5943 59.1543 40.32 58.88 40.32H54.8571Z" fill="#141515"/>
<path d="M30.2629 22.1257C30.08 22.1257 29.8971 22.0343 29.8057 21.9429C29.5314 21.6686 29.5314 21.3029 29.8057 21.0286L32.7314 18.1029C33.0057 17.8286 33.3714 17.8286 33.6457 18.1029C33.92 18.3771 33.92 18.7429 33.6457 19.0171L30.72 21.9429C30.6286 22.0343 30.4457 22.1257 30.2629 22.1257Z" fill="#141515"/>
<path d="M30.8114 25.5086C30.6286 25.5086 30.4457 25.4171 30.3543 25.3257C30.08 25.0514 30.08 24.6857 30.3543 24.4114L35.6571 18.9257C35.9314 18.6514 36.2971 18.6514 36.5714 18.9257C36.8457 19.2 36.8457 19.5657 36.5714 19.84L31.2686 25.3257C31.0857 25.4171 30.9028 25.5086 30.8114 25.5086Z" fill="#141515"/>
<path d="M38.2172 12.3429L37.5772 11.0629C36.0229 8.13714 36.48 8.32 31.36 8.32C26.3314 8.32 26.7886 8.13714 25.1429 11.0629C24.8686 11.6114 24.5943 11.9771 24.5029 12.3429H38.2172Z" fill="#EDA127"/>
<path d="M38.2171 12.9829H24.5029C24.32 12.9829 24.0457 12.8914 23.9543 12.7086C23.8629 12.5257 23.8629 12.2514 23.9543 12.0686C24.0457 11.7943 24.2286 11.6114 24.4114 11.2457L24.96 10.24C26.24 7.86286 26.6057 7.68 29.8057 7.68H32.9143C36.2057 7.68 36.5714 7.86286 37.76 10.24L38.3086 11.2457C38.4914 11.52 38.5829 11.7943 38.7657 12.0686C38.8571 12.2514 38.8571 12.5257 38.7657 12.7086C38.6743 12.8914 38.4 12.9829 38.2171 12.9829ZM25.6 11.7029H37.2114L36.7543 10.7886C35.6571 8.96 35.6571 8.96 32.9143 8.96H29.8057C27.0629 8.96 27.0629 8.96 26.0571 10.88L25.6 11.7029Z" fill="#141515"/>
<path d="M20.5714 26.0571H25.3257C25.7828 26.0571 26.24 26.4229 26.24 26.9714V29.2571C26.24 29.7143 25.8743 30.1714 25.3257 30.1714H20.5714C20.1143 30.1714 19.6571 29.8057 19.6571 29.2571V26.9714C19.6571 26.5143 20.0228 26.0571 20.5714 26.0571Z" fill="#FAD311"/>
<path d="M25.3257 30.8114H20.5714C19.7486 30.8114 19.0172 30.08 19.0172 29.2571V26.9714C19.0172 26.1486 19.7486 25.4171 20.5714 25.4171H25.3257C26.1486 25.4171 26.88 26.1486 26.88 26.9714V29.2571C26.88 30.08 26.1486 30.8114 25.3257 30.8114ZM20.5714 26.7886C20.3886 26.7886 20.2971 26.88 20.2971 27.0629V29.2571C20.2971 29.44 20.3886 29.5314 20.5714 29.5314H25.3257C25.5086 29.5314 25.6 29.44 25.6 29.2571V26.9714C25.6 26.7886 25.5086 26.6971 25.3257 26.6971H20.5714V26.7886Z" fill="#141515"/>
</svg>
